#!OML:ASF I:\golf\golf\golf 2\Subject 1\2002-09-07\Subject1.ASF
:FULLY-SPECIFIED
:DEGREES
447
root -5.75305 17.9475 -3.99993 -167.475 -5.14554 -177.189
lowerback -10.9198 16.9997 12.8797
upperback -14.9986 19.3803 -1.85143
thorax -5.75782 7.46956 -6.52868
lowerneck -7.8855 -21.0739 -4.36409
upperneck 4.86089 -28.7275 6.73036
head 4.22958 -14.088 0.5954
rclavicle 5.07895e-014 -5.1684e-015
rhumerus 111.242 22.5177 -47.5334
rradius 74.636
rwrist 5.36357
rhand -49.044 46.4329
rfingers 7.12502
rthumb -21.6713 17.6258
lclavicle 5.07895e-014 -5.1684e-015
lhumerus 69.577 29.3277 61.3029
lradius 84.2863
lwrist 5.54228
lhand -40.6444 20.9216
lfingers 7.12502
lthumb -193.589 -129.542
rfemur 26.1042 -15.035 17.2289
rtibia 9.54166e-015
rfoot 39.139 -28.1799
rtoes 31.2218
lfemur -27.9565 -19.4781 -15.4047
ltibia 27.7233
lfoot 38.3358 -45.8382
ltoes 53.8741
448
root -5.75354 17.9457 -4.00825 -167.558 -5.10854 -177.238
lowerback -10.8968 17.0076 12.9205
upperback -15.0505 19.3843 -1.88952
thorax -5.80344 7.45681 -6.59556
lowerneck -8.06778 -21.0033 -4.55584
upperneck 5.28025 -28.6163 6.57571
head 4.38499 -14.0248 0.535622
rclavicle -1.00486e-013 -1.21259e-014
rhumerus 111.106 22.9292 -47.6574
rradius 74.434
rwrist 5.41161
rhand -49.4285 47.2216
rfingers 7.12502
rthumb -22.0405 18.4576
lclavicle -1.00486e-013 -1.21259e-014
lhumerus 69.2964 29.5253 60.6529
lradius 83.9121
lwrist 4.89036
lhand -40.4666 20.7614
lfingers 7.12502
lthumb -193.418 -129.691
rfemur 26.1917 -15.0043 17.1472
rtibia -3.18055e-014
rfoot 39.2163 -28.3457
rtoes 31.387
lfemur -27.8045 -19.4414 -15.5221
ltibia 27.72
lfoot 38.3785 -45.8073
ltoes 53.9241
449
root -5.75092 17.9432 -4.01673 -167.633 -5.08827 -177.287
lowerback -10.9358 16.9978 12.9115
upperback -15.0638 19.3593 -1.90054
thorax -5.8015 7.44211 -6.59961
lowerneck -8.21038 -20.9446 -4.84317
upperneck 5.65137 -28.5316 6.57213
head 4.55625 -13.9721 0.524088
rclavicle -5.46658e-015 6.95746e-015
rhumerus 110.974 23.2882 -47.7737
rradius 74.2072
rwrist 5.38878
rhand -49.7828 48.1345
rfingers 7.12502
rthumb -22.3806 19.411
lclavicle -5.46658e-015 6.95746e-015
lhumerus 69.0548 29.6755 60.0329
lradius 83.4735
lwrist 4.42149
lhand -40.2455 20.506
lfingers 7.12502
lthumb -193.204 -129.932
rfemur 26.2875 -14.9964 17.0905
rtibia 4.45278e-014
rfoot 39.3262 -28.3338
rtoes 31.252
lfemur -27.6798 -19.3603 -15.6242
ltibia 27.7369
lfoot 38.7353 -45.7169
ltoes 54.0016
450
root -5.74462 17.9421 -4.02576 -167.641 -5.08058 -177.253
lowerback -11.0574 17.014 12.9511
upperback -15.0821 19.3443 -1.92408
thorax -5.743 7.42908 -6.61297
lowerneck -8.27422 -20.9222 -4.88627
upperneck 5.75117 -28.4965 6.53801
head 4.5961 -13.9525 0.509142
rclavicle -6.75868e-015 -3.69739e-014
rhumerus 110.786 23.5338 -47.9339
rradius 73.9613
rwrist 5.31138
rhand -50.1507 49.3057
rfingers 7.12502
rthumb -22.7338 20.625
lclavicle -6.75868e-015 -3.69739e-014
lhumerus 68.7968 29.7643 59.3636
lradius 83.0579
lwrist 4.19904
lhand -40.3657 20.0747
lfingers 7.12502
lthumb -193.32 -130.371
rfemur 26.3035 -15.0016 17.1749
rtibia 1.90833e-014
rfoot 39.5219 -28.1817
rtoes 30.8574
lfemur -27.6609 -19.2004 -15.6006
ltibia 27.7487
lfoot 39.521 -45.396
ltoes 54.2638
